<?xml version="1.0" standalone="no"?>
<!DOCTYPE svg PUBLIC "-//W3C//DTD SVG 20010904//EN"
 "http://www.w3.org/TR/2001/REC-SVG-20010904/DTD/svg10.dtd">
<svg version="1.0" xmlns="http://www.w3.org/2000/svg"
 width="1075.000000pt" height="1080.000000pt" viewBox="0 0 1075.000000 1080.000000"
 preserveAspectRatio="xMidYMid meet">

<g transform="translate(0.000000,1080.000000) scale(0.100000,-0.100000)"
fill="#000000" stroke="none">
<path d="M0 5400 l0 -5400 5375 0 5375 0 0 5400 0 5400 -5375 0 -5375 0 0
-5400z m4788 1511 c1 -57 -1 -108 -5 -112 -4 -4 -105 -4 -223 -1 l-215 7 4
100 c1 55 5 103 8 108 2 4 100 6 216 5 l212 -3 3 -104z m1692 -5 c0 -58 -3
-107 -7 -109 -5 -3 -108 -2 -230 1 l-223 5 0 103 0 104 230 0 230 0 0 -104z
m-958 -3347 c-2 -26 1 -38 12 -42 25 -10 37 -54 30 -108 l-7 -49 -53 0 -54 0
0 68 c0 55 4 72 19 86 11 10 17 25 14 36 -8 29 4 52 24 48 14 -2 17 -11 15
-39z m-3444 -526 l2 -233 -114 0 c-63 0 -121 -3 -130 -6 -14 -5 -16 -30 -16
-170 l0 -164 -79 0 c-44 0 -82 3 -84 8 -3 4 -2 78 0 165 l6 157 73 0 74 0 0
238 c0 131 2 241 4 243 2 2 62 2 133 -1 l128 -5 3 -232z m6899 231 c-3 -3 -12
-4 -19 -1 -8 3 -5 6 6 6 11 1 17 -2 13 -5z m-6902 -1203 c11 -125 16 -121
-131 -121 l-124 0 0 -145 0 -145 -85 0 -85 0 0 145 0 145 80 0 80 0 2 73 c1
63 3 89 7 120 1 4 57 7 125 7 l124 0 7 -79z m2318 -808 c-55 -66 -58 -53 -8
28 20 30 29 38 35 29 6 -9 -4 -29 -27 -57z"/>
<path d="M5497 3483 c-4 -3 -7 -21 -7 -40 0 -26 4 -33 20 -33 17 0 20 7 20 40
0 38 -14 52 -33 33z"/>
</g>
</svg>
